<?xml version="1.0" encoding="UTF-8" standalone="no"?>
<!DOCTYPE svg PUBLIC "-//W3C//DTD SVG 1.1//EN" "http://www.w3.org/Graphics/SVG/1.1/DTD/svg11.dtd">
<!-- Created with Vectornator (http://vectornator.io/) -->
<svg height="100%" stroke-miterlimit="10" style="fill-rule:nonzero;clip-rule:evenodd;stroke-linecap:round;stroke-linejoin:round;" version="1.1" viewBox="0 0 960 960" width="100%" xml:space="preserve" xmlns="http://www.w3.org/2000/svg" xmlns:xlink="http://www.w3.org/1999/xlink">
<defs/>
<g id="Untitled">
<path d="M140 820L140 500L140 820ZM820 820L820 500L820 820ZM760 340C777 340 791.25 334.25 802.75 322.75C814.25 311.25 820 297 820 280C820 263 814.25 248.75 802.75 237.25C791.25 225.75 777 220 760 220C743 220 728.75 225.75 717.25 237.25C705.75 248.75 700 263 700 280C700 297 705.75 311.25 717.25 322.75C728.75 334.25 743 340 760 340ZM760 400C726 400 697.5 388.5 674.5 365.5C651.5 342.5 640 314 640 280C640 246.667 651.5 218.333 674.5 195C697.5 171.667 726 160 760 160C793.333 160 821.667 171.667 845 195C868.333 218.333 880 246.667 880 280C880 314 868.333 342.5 845 365.5C821.667 388.5 793.333 400 760 400ZM480.157 300C502.052 300 520.833 292.333 536.5 277C552.167 261.667 560 242.614 560 219.843C560 197.948 552.222 179.167 536.667 163.5C521.111 147.833 502.222 140 480 140C457.333 140 438.333 147.778 423 163.333C407.667 178.889 400 197.778 400 220C400 242.667 407.667 261.667 423 277C438.333 292.333 457.386 300 480.157 300ZM480 360C440.667 360 407.5 346.5 380.5 319.5C353.5 292.5 340 259.333 340 220C340 181.333 353.5 148.333 380.5 121C407.5 93.6667 440.667 80 480 80C518.667 80 551.667 93.6667 579 121C606.333 148.333 620 181.333 620 220C620 259.333 606.333 292.5 579 319.5C551.667 346.5 518.667 360 480 360ZM300 535C300 558.091 312.167 585.03 336.5 615.818C360.833 646.606 408.667 694.333 480 759C550.5 694.778 598.125 647.556 622.875 617.333C647.625 587.111 660 559.667 660 535C660 513.667 653.077 495.833 639.231 481.5C625.385 467.167 608.308 460 588 460C576.273 460 565.175 463 554.705 469C544.235 475 534.333 482 525 490L480 532L434 490C424.667 482 414.833 475 404.5 469C394.167 463 383.222 460 371.667 460C351.222 460 334.167 467.273 320.5 481.818C306.833 496.363 300 514.091 300 535ZM240 535C240 499.667 253.333 468.333 280 441C306.667 413.667 337.333 400 372 400C392 400 411.624 404.667 430.873 414C450.121 423.333 466.499 436 480.007 452C493.514 436 509.723 423.333 528.634 414C547.545 404.667 567.333 400 588 400C622 400 652.5 413.667 679.5 441C706.5 468.333 720 499.667 720 535C720 570.333 707.167 605.167 681.5 639.5C655.833 673.833 603.333 727.333 524 800L480 840L436 800C355.333 726.667 302.5 673 277.5 639C252.5 605 240 570.333 240 535ZM200 340C217 340 231.25 334.25 242.75 322.75C254.25 311.25 260 297 260 280C260 263 254.25 248.75 242.75 237.25C231.25 225.75 217 220 200 220C183 220 168.75 225.75 157.25 237.25C145.75 248.75 140 263 140 280C140 297 145.75 311.25 157.25 322.75C168.75 334.25 183 340 200 340ZM483 880L483 820L820 820L820 500L678 500L678 440L820 440C836.5 440 850.625 445.875 862.375 457.625C874.125 469.375 880 483.5 880 500L880 880L483 880ZM140 820L483 820L483 880L80 880L80 500C80 483.5 85.75 469.375 97.25 457.625C108.75 445.875 123 440 140 440L281 440L281 500L140 500L140 820ZM200 400C166 400 137.5 388.5 114.5 365.5C91.5 342.5 80 314 80 280C80 246.667 91.5 218.333 114.5 195C137.5 171.667 166 160 200 160C233.333 160 261.667 171.667 285 195C308.333 218.333 320 246.667 320 280C320 314 308.333 342.5 285 365.5C261.667 388.5 233.333 400 200 400Z" fill="#4f46e5" fill-rule="nonzero" opacity="1" stroke="none"/>
</g>
</svg>
